<svg width="151" height="50" viewBox="0 0 151 50" fill="none" xmlns="http://www.w3.org/2000/svg">
<path d="M7.92 40V12H18.88C20.88 12 22.68 12.3333 24.28 13C25.9067 13.6667 27.2933 14.6267 28.44 15.88C29.5867 17.1333 30.4667 18.6133 31.08 20.32C31.6933 22.0267 32 23.92 32 26C32 28.08 31.6933 29.9867 31.08 31.72C30.4667 33.4267 29.5867 34.9067 28.44 36.16C27.32 37.3867 25.9467 38.3333 24.32 39C22.6933 39.6667 20.88 40 18.88 40H7.92ZM12.24 36.28L12.12 35.84H18.68C20.0933 35.84 21.3467 35.6133 22.44 35.16C23.56 34.7067 24.4933 34.0667 25.24 33.24C26.0133 32.3867 26.6 31.3467 27 30.12C27.4 28.8933 27.6 27.52 27.6 26C27.6 24.48 27.4 23.12 27 21.92C26.6 20.6933 26.0133 19.6533 25.24 18.8C24.4667 17.9467 23.5333 17.2933 22.44 16.84C21.3467 16.3867 20.0933 16.16 18.68 16.16H12L12.24 15.8V36.28Z" fill="#FF005C"/>
<path d="M49.2419 40V26.32C49.2419 25.1467 48.8152 24.2 47.9619 23.48C47.1352 22.7333 46.0819 22.36 44.8019 22.36C43.6285 22.36 42.5619 22.6 41.6019 23.08C40.6685 23.56 39.8152 24.2933 39.0419 25.28L36.3619 22.6C37.6152 21.24 38.9619 20.2267 40.4019 19.56C41.8685 18.8933 43.4419 18.56 45.1219 18.56C46.7219 18.56 48.1085 18.8267 49.2819 19.36C50.4552 19.8933 51.3619 20.68 52.0019 21.72C52.6419 22.7333 52.9619 23.9733 52.9619 25.44V40H49.2419ZM42.9619 40.4C41.6019 40.4 40.3885 40.1333 39.3219 39.6C38.2552 39.0667 37.4019 38.3333 36.7619 37.4C36.1485 36.44 35.8419 35.32 35.8419 34.04C35.8419 32.92 36.0419 31.9333 36.4419 31.08C36.8419 30.2267 37.4285 29.52 38.2019 28.96C39.0019 28.4 39.9885 27.9733 41.1619 27.68C42.3619 27.3867 43.7352 27.24 45.2819 27.24H51.1219L50.7619 30.52H44.7619C43.9619 30.52 43.2419 30.6 42.6019 30.76C41.9885 30.8933 41.4552 31.12 41.0019 31.44C40.5752 31.7333 40.2552 32.0933 40.0419 32.52C39.8285 32.92 39.7219 33.4 39.7219 33.96C39.7219 34.5467 39.8685 35.0667 40.1619 35.52C40.4552 35.9467 40.8552 36.28 41.3619 36.52C41.8685 36.76 42.4552 36.88 43.1219 36.88C44.0819 36.88 44.9885 36.72 45.8419 36.4C46.7219 36.0533 47.4952 35.5867 48.1619 35C48.8552 34.4133 49.3885 33.76 49.7619 33.04L50.7219 35.72C50.1619 36.6533 49.4685 37.4667 48.6419 38.16C47.8152 38.8533 46.9219 39.4 45.9619 39.8C45.0019 40.2 44.0019 40.4 42.9619 40.4ZM58.1691 40V19H62.2891V23.32L61.5691 23.8C61.8357 22.8667 62.3557 22.0133 63.1291 21.24C63.9024 20.44 64.8224 19.8 65.8891 19.32C66.9557 18.8133 68.0491 18.56 69.1691 18.56C70.7691 18.56 72.1024 18.88 73.1691 19.52C74.2357 20.1333 75.0357 21.08 75.5691 22.36C76.1024 23.64 76.3691 25.2533 76.3691 27.2V40H72.2491V27.48C72.2491 26.28 72.0891 25.2933 71.7691 24.52C71.4491 23.72 70.9557 23.1467 70.2891 22.8C69.6224 22.4267 68.7957 22.2667 67.8091 22.32C67.0091 22.32 66.2757 22.4533 65.6091 22.72C64.9424 22.96 64.3557 23.3067 63.8491 23.76C63.3691 24.2133 62.9824 24.7467 62.6891 25.36C62.4224 25.9467 62.2891 26.5867 62.2891 27.28V40H60.2491C59.9024 40 59.5557 40 59.2091 40C58.8624 40 58.5157 40 58.1691 40ZM82.6381 40V19H86.7581V40H82.6381ZM84.6381 14.36C83.7581 14.36 83.0781 14.1333 82.5981 13.68C82.1181 13.2267 81.8781 12.5867 81.8781 11.76C81.8781 10.9867 82.1181 10.36 82.5981 9.88C83.1048 9.4 83.7848 9.16 84.6381 9.16C85.5181 9.16 86.1981 9.38667 86.6781 9.84C87.1581 10.2933 87.3981 10.9333 87.3981 11.76C87.3981 12.5333 87.1448 13.16 86.6381 13.64C86.1581 14.12 85.4915 14.36 84.6381 14.36ZM93.0109 40V19H97.1709V23.48L96.4109 23.96C96.6243 23.2667 96.9576 22.6 97.4109 21.96C97.8909 21.32 98.4643 20.76 99.1309 20.28C99.8243 19.7733 100.558 19.3733 101.331 19.08C102.131 18.7867 102.944 18.64 103.771 18.64C104.971 18.64 106.024 18.84 106.931 19.24C107.838 19.64 108.584 20.24 109.171 21.04C109.758 21.84 110.184 22.84 110.451 24.04L109.811 23.88L110.091 23.2C110.384 22.5867 110.784 22.0133 111.291 21.48C111.824 20.92 112.424 20.4267 113.091 20C113.758 19.5733 114.464 19.24 115.211 19C115.958 18.76 116.691 18.64 117.411 18.64C118.984 18.64 120.278 18.96 121.291 19.6C122.331 20.24 123.104 21.2133 123.611 22.52C124.144 23.8267 124.411 25.4533 124.411 27.4V40H120.251V27.64C120.251 25.8533 119.904 24.5467 119.211 23.72C118.544 22.8667 117.491 22.44 116.051 22.44C115.304 22.44 114.598 22.5733 113.931 22.84C113.291 23.08 112.731 23.4267 112.251 23.88C111.771 24.3333 111.398 24.8667 111.131 25.48C110.864 26.0667 110.731 26.72 110.731 27.44V40H106.571V27.56C106.571 25.9067 106.211 24.64 105.491 23.76C104.798 22.88 103.784 22.44 102.451 22.44C101.704 22.44 101.011 22.5733 100.371 22.84C99.7309 23.08 99.1709 23.4267 98.6909 23.88C98.2109 24.3067 97.8376 24.8267 97.5709 25.44C97.3043 26.0267 97.1709 26.6667 97.1709 27.36V40H93.0109ZM139.727 40.4C137.567 40.4 135.647 39.9467 133.967 39.04C132.314 38.1067 131.007 36.84 130.047 35.24C129.114 33.64 128.647 31.8 128.647 29.72C128.647 28.0667 128.914 26.56 129.447 25.2C129.98 23.84 130.714 22.6667 131.647 21.68C132.607 20.6667 133.74 19.8933 135.047 19.36C136.38 18.8 137.82 18.52 139.367 18.52C140.727 18.52 141.994 18.7867 143.167 19.32C144.34 19.8267 145.354 20.5333 146.207 21.44C147.087 22.3467 147.754 23.4267 148.207 24.68C148.687 25.9067 148.914 27.2533 148.887 28.72L148.847 30.48H131.687L130.767 27.2H145.287L144.687 27.88V26.92C144.607 26.04 144.314 25.2533 143.807 24.56C143.3 23.8667 142.66 23.32 141.887 22.92C141.114 22.52 140.274 22.32 139.367 22.32C137.927 22.32 136.714 22.6 135.727 23.16C134.74 23.6933 133.994 24.4933 133.487 25.56C132.98 26.6 132.727 27.8933 132.727 29.44C132.727 30.9067 133.034 32.1867 133.647 33.28C134.26 34.3467 135.127 35.1733 136.247 35.76C137.367 36.3467 138.66 36.64 140.127 36.64C141.167 36.64 142.127 36.4667 143.007 36.12C143.914 35.7733 144.887 35.1467 145.927 34.24L148.007 37.16C147.367 37.8 146.58 38.36 145.647 38.84C144.74 39.32 143.767 39.7067 142.727 40C141.714 40.2667 140.714 40.4 139.727 40.4Z" fill="white"/>
<circle cx="2.5" cy="21.5" r="2.5" fill="#FF005C"/>
<circle cx="2.5" cy="37.5" r="2.5" fill="#FF005C"/>
</svg>
